<svg data-v-0a54c80a="" width="38" height="20" viewBox="0 0 38 20" fill="none" xmlns="http://www.w3.org/2000/svg" class="update-icon"><rect data-v-0a54c80a="" y="1" width="38" height="16" rx="8" fill="#F53F3F"></rect><path data-v-0a54c80a="" d="M7.5 7.93H11.47V9.02H7.5V7.93ZM11.47 9.65V10.71H7.5V9.65H11.47ZM11.47 11.34V12.48C11.47 12.72 11.34 12.84 11.08 12.84C10.75 12.84 10.39 12.82 10.01 12.8L10.19 13.46H11.31C11.87 13.44 12.15 13.19 12.15 12.7V7.3H7.51C7.75 6.93 7.96 6.54 8.16 6.14H13.43V5.44H8.46C8.6 5.09 8.72 4.73 8.84 4.36L8.11 4.27C7.99 4.66 7.84 5.05 7.67 5.44H4.69V6.14H7.34C6.65 7.43 5.68 8.57 4.42 9.57L4.89 10.18C5.61 9.6 6.26 8.95 6.82 8.25V13.48H7.5V11.34H11.47ZM14.72 4.73V5.4H18.64V6.27H15.58V10.23H18.51C18.41 10.75 18.23 11.18 17.99 11.52C17.43 11.23 16.91 10.89 16.44 10.5L15.89 10.88C16.38 11.3 16.92 11.67 17.5 11.99C16.86 12.45 15.84 12.73 14.45 12.84L14.76 13.5C16.35 13.32 17.5 12.94 18.2 12.34C19.69 13.02 21.44 13.41 23.45 13.49L23.63 12.8C21.71 12.74 20.05 12.41 18.65 11.82C18.93 11.42 19.12 10.89 19.24 10.23H22.46V6.27H19.36V5.4H23.29V4.73H14.72ZM21.75 9.6H19.33L19.36 8.89V8.54H21.75V9.6ZM18.61 9.6H16.29V8.54H18.64V8.89C18.64 9.13 18.63 9.37 18.61 9.6ZM16.29 7.94V6.89H18.64V7.94H16.29ZM19.36 6.89H21.75V7.94H19.36V6.89ZM32.94 4.43C31.97 4.85 30.88 5.08 29.67 5.1V9.38C29.62 10.9 29.3 12.09 28.71 12.95L29.22 13.49C29.94 12.47 30.32 11.1 30.37 9.38V8.19H31.85V13.53H32.56V8.19H33.6V7.5H30.37V5.68C31.45 5.62 32.42 5.41 33.3 5.07L32.94 4.43ZM24.61 5.2V5.86H29.12V5.2H27.23C27.09 4.84 26.95 4.51 26.8 4.21L26.06 4.33C26.23 4.59 26.38 4.88 26.52 5.2H24.61ZM24.51 7.47V8.12H26.53V9.24H24.67V9.9H26.53V12.56C26.53 12.8 26.4 12.92 26.14 12.92C26 12.92 25.85 12.9 25.69 12.87L25.84 13.54H26.38C26.96 13.54 27.25 13.27 27.25 12.73V9.9H29.01V9.24H27.25V8.12H29.18V7.47H28.05C28.24 7.13 28.41 6.74 28.57 6.31L27.92 6.09C27.77 6.57 27.6 7.03 27.4 7.47H26.3C26.14 6.93 25.96 6.48 25.77 6.11L25.13 6.34C25.33 6.69 25.51 7.07 25.66 7.47H24.51ZM25.37 10.44C25.15 11.32 24.81 12.12 24.34 12.84L24.94 13.22C25.4 12.47 25.77 11.59 26.03 10.58L25.37 10.44ZM28.24 10.37L27.64 10.53C27.92 11.13 28.15 11.75 28.34 12.38L28.94 12.15C28.78 11.61 28.54 11.02 28.24 10.37Z" fill="white"></path><path data-v-0a54c80a="" d="M18.8284 14L21.6568 16.8284L19.1112 19.374C18.955 19.5302 18.7017 19.5302 18.5455 19.374L15.9999 16.8284L18.8284 14Z" fill="#F53F3F"></path></svg>